<?xml version="1.0" standalone="no"?>
<!DOCTYPE svg PUBLIC "-//W3C//DTD SVG 20010904//EN"
 "http://www.w3.org/TR/2001/REC-SVG-20010904/DTD/svg10.dtd">
<svg version="1.0" xmlns="http://www.w3.org/2000/svg"
 width="700.000000pt" height="700.000000pt" viewBox="0 0 700.000000 700.000000"
 preserveAspectRatio="xMidYMid meet">
<metadata>
Created by potrace 1.11, written by Peter Selinger 2001-2013
</metadata>
<g transform="translate(0.000000,700.000000) scale(0.100000,-0.100000)"
fill="#000000" stroke="none">
<path d="M3210 6769 c-989 -86 -1896 -628 -2448 -1463 -724 -1095 -723 -2526
3 -3616 614 -922 1634 -1470 2735 -1470 958 0 1861 416 2489 1145 690 801 949
1889 696 2921 -311 1265 -1353 2233 -2635 2448 -261 44 -583 57 -840 35z m735
-1604 c252 -36 459 -129 592 -266 71 -74 87 -95 127 -175 55 -111 70 -180 69
-334 -1 -354 -136 -593 -458 -812 -224 -153 -346 -262 -422 -376 -64 -96 -103
-215 -103 -317 l0 -42 -249 -8 c-137 -4 -254 -4 -260 0 -17 10 -14 253 5 343
46 224 180 416 409 586 44 33 121 91 172 128 113 85 223 200 259 270 39 76 45
190 14 272 -60 158 -232 236 -520 236 -247 0 -430 -72 -702 -275 -97 -72 -115
-82 -127 -70 -8 8 -76 94 -152 192 l-139 178 76 72 c212 204 555 358 892 402
110 14 407 12 517 -4z m-345 -2645 c120 -23 205 -84 258 -183 25 -48 27 -61
27 -162 0 -94 -3 -117 -23 -156 -36 -74 -87 -125 -160 -161 -64 -32 -71 -33
-187 -33 -108 0 -125 3 -175 26 -80 37 -125 81 -162 157 -31 62 -33 74 -33
167 0 123 22 181 96 250 94 88 221 121 359 95z"/>
</g>
</svg>
